<?xml version="1.0" standalone="no"?>
<!DOCTYPE svg PUBLIC "-//W3C//DTD SVG 20010904//EN"
 "http://www.w3.org/TR/2001/REC-SVG-20010904/DTD/svg10.dtd">
<svg version="1.0" xmlns="http://www.w3.org/2000/svg"
 width="1024.000000pt" height="1024.000000pt" viewBox="0 0 1024.000000 1024.000000"
 preserveAspectRatio="xMidYMid meet">
<metadata>
Created by potrace 1.14, written by Peter Selinger 2001-2017
</metadata>
<g transform="translate(0.000000,1024.000000) scale(0.100000,-0.100000)"
fill="#000000" stroke="none">
<path d="M4918 10235 c-2 -2 -34 -6 -73 -9 -38 -3 -81 -8 -94 -11 -13 -2 -41
-5 -63 -7 -22 -1 -41 -5 -43 -9 -3 -3 -16 -5 -30 -4 -14 2 -25 0 -25 -3 0 -4
-12 -8 -27 -9 -16 0 -41 -4 -58 -8 -16 -4 -39 -8 -50 -9 -11 0 -22 -4 -25 -8
-3 -3 -18 -8 -35 -11 -57 -10 -282 -85 -378 -126 -26 -11 -49 -19 -51 -18 -1
1 -10 -4 -19 -12 -10 -7 -17 -10 -17 -6 0 4 -6 3 -12 -3 -7 -5 -66 -37 -130
-70 -114 -58 -380 -228 -425 -271 -12 -12 -25 -21 -28 -21 -3 0 -16 -10 -29
-22 -13 -13 -43 -39 -67 -58 -84 -68 -329 -321 -329 -340 0 -6 -4 -10 -8 -10
-10 0 -129 -158 -189 -250 -23 -36 -46 -69 -50 -75 -12 -16 -48 -81 -104 -190
-28 -55 -54 -107 -59 -115 -8 -13 -21 -47 -24 -60 -1 -3 -7 -15 -14 -27 -7
-13 -9 -23 -5 -23 4 0 3 -4 -2 -8 -6 -4 -16 -23 -22 -42 -6 -19 -23 -69 -38
-110 -23 -67 -69 -221 -80 -275 -3 -11 -7 -30 -10 -42 -12 -53 -15 -69 -20
-103 -3 -20 -8 -47 -10 -60 -3 -14 -8 -50 -11 -80 -3 -30 -7 -66 -9 -80 -3
-14 -7 -86 -10 -160 -3 -74 -8 -136 -10 -138 -2 -2 1 -17 5 -33 5 -16 5 -31 0
-34 -4 -3 -4 -21 0 -40 4 -19 4 -37 0 -40 -4 -3 -4 -20 0 -39 4 -19 4 -40 0
-47 -5 -7 -5 -22 0 -34 5 -12 5 -27 0 -34 -4 -7 -4 -28 0 -47 4 -19 4 -36 0
-39 -4 -3 -4 -20 0 -39 4 -19 4 -40 0 -47 -5 -7 -5 -22 0 -33 4 -12 4 -30 0
-41 -4 -11 -4 -31 -1 -45 4 -14 6 -34 5 -45 -1 -11 -3 -32 -3 -47 -1 -16 -1
-40 -2 -55 0 -16 0 -35 0 -43 1 -8 1 -26 0 -40 0 -14 0 -32 0 -40 1 -14 0 -47
-2 -77 -1 -16 -25 -25 -32 -13 -3 6 -15 6 -30 0 -15 -6 -27 -6 -30 0 -3 6 -15
6 -30 0 -15 -6 -27 -6 -30 0 -3 6 -15 6 -30 0 -15 -6 -27 -6 -30 0 -3 6 -15 6
-30 0 -13 -5 -27 -6 -29 -1 -3 4 -26 5 -51 1 -25 -4 -48 -3 -51 2 -3 4 -10 5
-17 1 -6 -3 -26 -8 -45 -9 -31 -2 -112 -14 -137 -20 -5 -1 -21 -4 -35 -7 -59
-12 -191 -59 -260 -93 -205 -99 -385 -252 -499 -424 -20 -30 -39 -57 -42 -60
-24 -18 -131 -271 -144 -338 -2 -9 -4 -17 -6 -17 -1 0 -3 -9 -5 -20 -1 -11 -5
-31 -8 -45 -4 -14 -10 -45 -14 -70 -9 -56 -10 -4123 0 -4202 3 -31 9 -62 13
-69 4 -6 9 -23 11 -38 8 -59 17 -92 25 -97 5 -3 9 -14 9 -25 0 -10 4 -27 9
-37 6 -9 25 -51 43 -92 18 -41 36 -76 40 -78 5 -2 8 -7 8 -12 0 -14 62 -110
71 -110 5 0 9 -7 9 -15 0 -8 5 -15 10 -15 6 0 10 -5 10 -11 0 -14 68 -88 161
-175 58 -54 192 -146 254 -175 28 -13 52 -27 55 -30 3 -4 34 -16 70 -29 36
-12 74 -26 85 -31 11 -5 31 -11 45 -13 14 -3 25 -5 25 -6 0 -2 21 -6 120 -24
69 -13 522 -15 3415 -13 1834 2 3351 6 3370 10 19 4 46 9 60 13 14 3 34 7 45
8 11 2 20 4 20 5 0 2 8 4 17 6 49 9 163 53 243 94 300 150 530 415 636 733 17
50 33 101 35 112 2 12 7 37 10 56 4 19 9 44 13 55 3 11 7 947 8 2080 2 1968 1
2064 -16 2155 -11 52 -21 104 -24 116 -13 53 -31 110 -37 119 -4 6 -10 21 -13
35 -10 38 -124 238 -169 295 -53 66 -134 151 -189 197 -24 21 -50 43 -57 49
-50 42 -210 135 -224 131 -5 -1 -8 3 -8 8 0 6 -7 10 -15 10 -8 0 -23 4 -33 9
-35 18 -122 50 -152 56 -3 1 -30 7 -60 13 -95 21 -103 22 -194 27 -50 3 -92 7
-94 10 -2 2 -15 0 -28 -5 -14 -6 -26 -6 -29 0 -3 6 -15 6 -30 0 -15 -6 -27 -6
-30 0 -3 5 -15 6 -29 0 -12 -4 -29 -4 -36 0 -8 5 -21 5 -30 0 -9 -5 -22 -5
-30 0 -8 5 -21 5 -31 0 -11 -7 -20 -5 -27 3 -13 16 -21 66 -12 72 4 3 4 20 0
39 -4 19 -4 40 0 47 5 7 5 22 0 33 -4 12 -4 30 0 41 4 11 4 31 1 45 -4 14 -6
34 -5 45 1 11 3 32 3 48 1 15 1 39 2 55 0 15 0 34 0 42 -1 8 -1 26 0 40 0 14
0 32 0 40 -1 8 -1 26 0 40 2 35 2 59 0 100 -2 51 -3 84 -2 95 2 95 1 136 -4
145 -3 5 -1 10 5 10 6 0 9 4 6 8 -3 5 -7 64 -10 133 -5 114 -8 147 -22 264 -6
57 -33 203 -45 250 -5 22 -12 54 -15 70 -3 17 -24 84 -46 150 -22 66 -41 125
-42 130 -4 13 -14 39 -33 90 -28 71 -142 306 -163 334 -10 16 -17 31 -13 34 3
4 -2 9 -11 13 -9 3 -16 11 -16 16 0 14 -80 142 -92 146 -4 2 -8 10 -8 18 0 8
-4 14 -10 14 -5 0 -10 5 -10 11 0 6 -14 28 -31 48 -64 76 -69 83 -69 91 0 5
-3 10 -7 12 -5 2 -33 32 -62 68 -76 91 -243 254 -337 330 -43 36 -80 68 -82
72 -2 5 -10 8 -18 8 -8 0 -14 3 -14 8 0 4 -17 18 -38 32 -20 14 -43 30 -49 37
-7 6 -41 28 -75 49 -35 20 -71 44 -80 52 -10 8 -18 11 -18 7 0 -5 -7 0 -15 11
-8 10 -15 15 -15 11 0 -5 -12 0 -27 11 -61 43 -362 182 -429 198 -16 4 -33 10
-39 14 -24 18 -341 102 -435 115 -14 2 -38 6 -55 9 -81 13 -116 18 -161 22
-56 6 -491 14 -496 9z m237 -1275 c0 -1 32 -3 70 -5 102 -5 188 -18 295 -47
142 -37 324 -111 390 -158 14 -10 29 -18 33 -18 4 0 51 -31 104 -69 94 -66
258 -220 318 -298 17 -21 36 -44 43 -52 7 -7 10 -13 5 -13 -4 0 -3 -4 3 -8 30
-19 194 -315 200 -362 1 -8 14 -48 28 -89 15 -41 28 -86 30 -100 2 -14 6 -33
9 -41 4 -8 8 -28 11 -45 2 -16 5 -30 6 -30 6 0 24 -260 21 -315 -1 -14 -1 -32
0 -40 0 -8 0 -26 0 -40 -1 -14 -1 -32 0 -40 0 -8 0 -27 0 -42 -1 -16 -1 -40
-2 -55 0 -16 -2 -37 -3 -48 -1 -11 1 -32 5 -47 4 -15 4 -30 -1 -33 -5 -3 -5
-18 0 -34 4 -15 4 -34 0 -41 -4 -6 -4 -27 0 -45 4 -18 4 -38 0 -45 -4 -7 -4
-24 -1 -39 4 -14 4 -43 1 -63 -4 -21 -5 -38 -1 -38 3 0 6 -18 6 -40 0 -22 -2
-40 -5 -40 -3 0 -5 -18 -5 -40 0 -22 2 -40 5 -40 3 0 4 -21 4 -46 -1 -44 -21
-75 -35 -53 -4 6 -15 6 -32 0 -17 -7 -28 -7 -32 0 -4 5 -11 6 -17 3 -14 -9
-303 -8 -317 0 -6 4 -11 4 -11 -1 0 -9 -67 -9 -76 0 -3 3 -17 2 -30 -3 -14 -6
-26 -6 -29 0 -3 6 -15 6 -30 0 -15 -6 -27 -6 -30 0 -3 6 -15 6 -30 0 -15 -6
-27 -6 -30 0 -3 6 -15 6 -30 0 -15 -6 -27 -6 -30 0 -3 6 -15 6 -30 0 -15 -6
-27 -6 -30 0 -3 6 -15 6 -30 0 -15 -6 -27 -6 -30 0 -3 6 -15 6 -30 0 -15 -6
-27 -6 -30 0 -3 6 -15 6 -30 0 -15 -6 -27 -6 -30 0 -3 6 -15 6 -30 0 -15 -6
-27 -6 -30 0 -3 6 -15 6 -30 0 -15 -6 -27 -6 -30 0 -3 6 -15 6 -30 0 -15 -6
-27 -6 -30 0 -3 6 -15 6 -30 0 -15 -6 -27 -6 -30 0 -3 6 -15 6 -30 0 -15 -6
-27 -6 -30 0 -3 6 -15 6 -30 0 -15 -6 -27 -6 -30 0 -3 6 -15 6 -30 0 -15 -6
-27 -6 -30 0 -3 6 -15 6 -30 0 -15 -6 -27 -6 -30 0 -3 6 -15 6 -30 0 -13 -5
-26 -6 -29 -2 -3 5 -30 5 -61 2 -31 -3 -58 -3 -61 2 -3 4 -16 3 -29 -2 -15 -6
-27 -6 -30 0 -3 6 -15 6 -30 0 -15 -6 -27 -6 -30 0 -3 6 -15 6 -30 0 -15 -6
-27 -6 -30 0 -3 6 -15 6 -30 0 -15 -6 -27 -6 -30 0 -3 6 -15 6 -30 0 -15 -6
-27 -6 -30 0 -3 6 -15 6 -30 0 -15 -6 -27 -6 -30 0 -3 6 -15 6 -30 0 -15 -6
-27 -6 -30 0 -3 6 -15 6 -30 0 -15 -6 -27 -6 -30 0 -3 6 -15 6 -30 0 -15 -6
-27 -6 -30 0 -3 6 -15 6 -30 0 -15 -6 -27 -6 -30 0 -3 6 -15 6 -30 0 -15 -6
-27 -6 -30 0 -3 6 -15 6 -30 0 -15 -6 -27 -6 -30 0 -3 6 -15 6 -30 0 -15 -6
-27 -6 -30 0 -3 6 -15 6 -30 0 -15 -6 -27 -6 -30 0 -3 6 -15 6 -30 0 -15 -6
-27 -6 -30 0 -3 6 -15 6 -30 0 -15 -6 -27 -6 -30 0 -3 6 -15 6 -30 0 -15 -6
-27 -6 -30 1 -4 5 -11 6 -17 3 -12 -8 -337 -8 -345 -1 -3 3 -15 2 -28 -3 -13
-5 -26 -6 -29 -2 -9 8 -46 10 -46 2 0 -12 -57 1 -58 13 -4 46 -2 138 3 147 3
5 2 10 -3 10 -5 0 -6 17 -2 40 4 22 4 40 0 40 -4 0 -4 17 -1 38 4 20 4 51 0
69 -3 17 -3 37 1 44 4 6 4 25 0 40 -5 16 -5 31 0 34 5 3 5 18 0 34 -4 15 -4
34 0 41 4 6 4 27 0 46 -4 19 -4 36 0 39 4 3 4 20 0 39 -4 19 -4 40 0 47 5 7 6
18 3 24 -7 20 -9 125 -2 125 4 0 3 16 -1 34 -4 19 -5 37 -2 40 8 8 6 81 -2 94
-4 7 -4 12 1 12 4 0 8 12 9 28 1 32 12 127 19 162 20 102 29 137 55 217 16 50
33 99 38 109 6 11 25 51 43 89 129 281 387 555 659 701 30 16 58 33 61 37 3 5
9 9 12 8 7 0 59 20 112 44 116 53 330 101 483 109 35 2 65 5 67 7 3 4 80 2 80
-1z"/>
</g>
</svg>
